<svg width="312" height="428" viewBox="0 0 312 428" fill="none" xmlns="http://www.w3.org/2000/svg">
<path d="M0 38C0 -5.07821 34.9218 -40 78 -40C121.078 -40 156 -5.07821 156 38V272H100C44.7715 272 0 227.228 0 172V38Z" fill="#66E2DC"/>
<path d="M156 272H234C277.078 272 312 306.922 312 350C312 393.078 277.078 428 234 428C190.922 428 156 393.078 156 350V272Z" fill="#191826"/>
<rect x="234" y="38" width="78" height="78" rx="39" fill="#FFB964"/>
<rect x="234" y="-40" width="78" height="78" rx="39" fill="#FA7453"/>
<rect y="272" width="156" height="156" rx="78" fill="#FA7453"/>
<rect x="156" y="-40" width="78" height="156" rx="39" fill="#191826"/>
<rect x="157" y="117" width="154" height="154" rx="77" stroke="#191826" stroke-width="2"/>
<rect x="157" y="156" width="76" height="76" rx="38" stroke="#191826" stroke-width="2"/>
</svg>
